<?xml version="1.0" encoding="iso-8859-1"?>
<!-- Uploaded to: SVG Repo, www.svgrepo.com, Generator: SVG Repo Mixer Tools -->
<svg fill="#000000" version="1.1" id="Layer_1" xmlns="http://www.w3.org/2000/svg" xmlns:xlink="http://www.w3.org/1999/xlink" 
	 viewBox="0 0 302.303 302.303" xml:space="preserve">
<g>
	<g>
		<g>
			<path d="M5.725,106.957v181.667h296.578V106.957H5.725z M247.859,116.257h23.119l-9.714,19.428h-23.119L247.859,116.257z
				 M214.343,116.257h23.118l-9.714,19.428h-23.119L214.343,116.257z M180.827,116.257h23.119l-9.714,19.428h-23.118
				L180.827,116.257z M147.312,116.257h23.119l-9.714,19.428h-23.118L147.312,116.257z M113.796,116.257h23.119l-9.714,19.428
				h-23.119L113.796,116.257z M80.281,116.257h23.118l-9.714,19.428H70.567L80.281,116.257z M46.764,116.257h23.119l-9.714,19.428
				H37.051L46.764,116.257z M293.003,279.323L293.003,279.323H15.025V116.257h21.342l-9.713,19.428h-6.702v9.3h268.125v-9.3h-16.416
				l9.714-19.428h11.628V279.323z"/>
			<rect x="24.877" y="250.457" width="9.3" height="19.152"/>
			<rect x="39.241" y="250.457" width="9.3" height="19.152"/>
			<rect x="63.043" y="255.383" width="220.246" height="9.3"/>
			<rect x="24.739" y="154.836" width="28.728" height="9.3"/>
			<rect x="24.739" y="173.988" width="52.668" height="9.3"/>
			<rect x="24.739" y="193.14" width="9.576" height="9.3"/>
		</g>
	</g>
</g>
</svg>