<?xml version="1.0" encoding="iso-8859-1"?>
<!-- Uploaded to: SVG Repo, www.svgrepo.com, Generator: SVG Repo Mixer Tools -->
<svg fill="#000000" version="1.1" id="Layer_1" xmlns="http://www.w3.org/2000/svg" xmlns:xlink="http://www.w3.org/1999/xlink" 
	 viewBox="0 0 302.303 302.303" xml:space="preserve">
<g>
	<g>
		<g>
			<path d="M298.675,51.129l-6.603-37.45L0,65.179l6.604,37.45L298.675,51.129z M273.076,26.472l11.451-2.019l3.374,19.133
				l-21.018,3.706L273.076,26.472z M240.07,32.292l22.767-4.014l-6.193,20.82l-22.767,4.014L240.07,32.292z M207.063,38.112
				l22.767-4.015l-6.193,20.82l-22.767,4.014L207.063,38.112z M174.057,43.932l22.767-4.015l-6.193,20.82l-22.767,4.014
				L174.057,43.932z M141.051,49.752l22.767-4.015l-6.193,20.82l-22.767,4.014L141.051,49.752z M108.044,55.572l22.766-4.015
				l-6.193,20.82l-22.767,4.015L108.044,55.572z M75.037,61.392l22.767-4.015l-6.193,20.82l-22.766,4.015L75.037,61.392z
				 M42.031,67.211l22.767-4.015l-6.193,20.82l-22.767,4.015L42.031,67.211z M31.791,69.017l-6.193,20.82l-11.451,2.019
				l-3.373-19.133L31.791,69.017z"/>
		</g>
	</g>
</g>
</svg>